<svg xmlns="http://www.w3.org/2000/svg" width="178" height="40" fill="none" style=""><rect id="backgroundrect" width="100%" height="100%" x="0" y="0" fill="none" stroke="none" style="" class=""/><defs><clipPath id="a"><path fill="#fff" d="M0 0h40v41H0z" id="svg_1"/></clipPath></defs><g class="currentLayer" style=""><title>Layer 1</title><g clip-path="url(#a)" id="svg_2" class=""><path fill="#C7231A" fill-rule="evenodd" d="M13.715006915975064,0.0002015940557758001 c-2.257,0 -4.42,0.8960000000000002 -6.016,2.492 L0.000006915975063748195,10.191201594055777 v3.524 c0,2.49 1.07,4.73 2.774,6.285 A8.485,8.485 0 0 0 0.000006915975063748195,26.286201594055775 v3.524 l7.699,7.698 A8.507,8.507 0 0 0 20.000006915975064,37.22620159405577 a8.508,8.508 0 0 0 12.301,0.2820000000000001 L40.000006915975064,29.810201594055776 v-3.524 c0,-2.49 -1.07,-4.73 -2.774,-6.286 A8.485,8.485 0 0 0 40.000006915975064,13.715201594055776 v-3.524 l-7.699,-7.7 A8.508,8.508 0 0 0 20.000006915975064,2.774201594055776 A8.485,8.485 0 0 0 13.715006915975064,0.0002015940557758001 zm12.044,20 a8.528,8.528 0 0 1 -0.2820000000000001,-0.27 L20.000006915975064,14.254201594055775 l-5.477,5.477 a8.528,8.528 0 0 1 -0.2820000000000001,0.27 c0.09600000000000006,0.08700000000000004 0.19000000000000006,0.17700000000000005 0.2820000000000001,0.269 L20.000006915975064,25.746201594055776 l5.477,-5.476 c0.09200000000000005,-0.09300000000000005 0.18600000000000005,-0.18200000000000005 0.2820000000000001,-0.27 zm-3.537,9.81 v1.6820000000000004 a4.063,4.063 0 0 0 6.936,2.874 l6.398,-6.397 v-1.6830000000000005 a4.063,4.063 0 0 0 -6.937,-2.874 l-6.397,6.398 zm-4.444,0 l-6.397,-6.398 a4.063,4.063 0 0 0 -6.937,2.873 v1.6840000000000004 l6.397,6.397 a4.063,4.063 0 0 0 6.937,-2.873 v-1.6830000000000005 zm0,-21.302 v1.6830000000000005 l-6.397,6.397 a4.063,4.063 0 0 1 -6.937,-2.873 v-1.6830000000000005 l6.397,-6.397 a4.063,4.063 0 0 1 6.937,2.873 zm10.841,8.08 l-6.397,-6.397 V8.508201594055775 a4.063,4.063 0 0 1 6.936,-2.873 l6.398,6.397 v1.6830000000000005 a4.063,4.063 0 0 1 -6.937,2.873 z" clip-rule="evenodd" id="svg_3"/></g><path fill="#ffffff" d="M50.04450289719149,28.484201594055776 V11.684201594055775 h11.484 v3.096 H53.59650289719149 v3.6 h6.72 v2.8680000000000003 h-6.72 v4.104 h8.028 V28.484201594055776 h-11.58 zm12.818,0.02400000000000002 l4.368,-6.036 l-4.14,-6.108 h4.428 l2.148,3.684 l2.088,-3.684 h4.32 l-4.02,6.036 L76.38650289719149,28.484201594055776 h-4.488 l-2.352,-3.696 l-2.388,3.66 l-4.296,0.06000000000000006 zm20.293,0.33600000000000046 c-1.296,0 -2.3200000000000003,-0.3640000000000003 -3.072,-1.092 c-0.7440000000000007,-0.7360000000000007 -1.116,-1.844 -1.116,-3.324 V12.872201594055776 h3.504 v3.492 h3.012 v2.808 h-3.012 v4.62 c0,0.7120000000000006 0.14800000000000016,1.212 0.4440000000000004,1.5 c0.2960000000000003,0.2880000000000003 0.692000000000001,0.43200000000000033 1.188,0.43200000000000033 c0.256,0 0.504,-0.02800000000000002 0.7440000000000007,-0.0840000000000001 c0.24800000000000016,-0.06400000000000008 0.4760000000000003,-0.15200000000000016 0.6840000000000009,-0.264 l0.4920000000000003,2.7600000000000002 c-0.3600000000000003,0.2 -0.792,0.3680000000000003 -1.296,0.504 a5.92,5.92 0 0 1 -1.572,0.20400000000000001 zm-6.648,-9.672 V16.364201594055775 h2.808 v2.808 H76.5065028971915 zm17.126,9.672 c-1.32,0 -2.48,-0.268 -3.48,-0.804 a5.853,5.853 0 0 1 -2.34,-2.244 c-0.56,-0.9600000000000006 -0.8400000000000006,-2.084 -0.8400000000000006,-3.372 c0,-0.936 0.16000000000000023,-1.796 0.4800000000000003,-2.58 a6.052,6.052 0 0 1 1.368,-2.028 A6.203,6.203 0 0 1 90.8975028971915,16.484201594055776 c0.8,-0.3200000000000004 1.6760000000000006,-0.4800000000000003 2.628,-0.4800000000000003 c1.048,0 1.976,0.18400000000000016 2.784,0.552 a5.43,5.43 0 0 1 2.028,1.548 c0.536,0.6560000000000008 0.908,1.428 1.116,2.316 c0.21600000000000016,0.8880000000000008 0.23600000000000004,1.852 0.06000000000000006,2.8920000000000003 h-9.288 c0,0.56 0.14400000000000004,1.048 0.43200000000000033,1.464 c0.2960000000000003,0.4160000000000003 0.7080000000000006,0.7440000000000007 1.236,0.984 c0.536,0.232 1.1600000000000001,0.3480000000000005 1.872,0.3480000000000005 c0.7040000000000006,0 1.3760000000000001,-0.09600000000000017 2.016,-0.2880000000000003 a6.426,6.426 0 0 0 1.812,-0.8760000000000007 l1.1640000000000001,2.4 c-0.3840000000000004,0.2960000000000003 -0.8640000000000007,0.56 -1.44,0.792 c-0.5760000000000006,0.22400000000000023 -1.188,0.39600000000000046 -1.836,0.516 a9.422,9.422 0 0 1 -1.848,0.19200000000000023 zm-3.204,-7.944 h5.724 c-0.02400000000000002,-0.7120000000000006 -0.276,-1.276 -0.7560000000000007,-1.6920000000000006 c-0.4720000000000003,-0.4160000000000003 -1.124,-0.6240000000000007 -1.956,-0.6240000000000007 c-0.8320000000000006,0 -1.524,0.20800000000000016 -2.076,0.6240000000000007 c-0.544,0.4160000000000003 -0.8560000000000006,0.98 -0.936,1.6920000000000006 zM101.55650289719149,28.484201594055776 V16.364201594055775 h3.504 v1.368 c0.464,-0.6080000000000007 1.012,-1.048 1.6440000000000001,-1.32 a5.072,5.072 0 0 1 2.004,-0.4080000000000003 c1.1280000000000001,0 2.056,0.22400000000000023 2.784,0.6720000000000009 c0.7360000000000007,0.44000000000000034 1.28,1.012 1.6320000000000001,1.7160000000000002 c0.3600000000000003,0.7040000000000006 0.54,1.444 0.54,2.22 V28.484201594055776 h-3.504 v-6.78 c0,-0.7680000000000008 -0.21600000000000016,-1.3800000000000001 -0.6480000000000008,-1.836 c-0.4240000000000003,-0.456 -1.04,-0.6840000000000009 -1.848,-0.6840000000000009 c-0.512,0 -0.9640000000000006,0.11600000000000012 -1.356,0.3480000000000005 c-0.3920000000000004,0.22400000000000023 -0.7000000000000006,0.54 -0.924,0.9480000000000006 c-0.21600000000000016,0.4080000000000003 -0.3240000000000004,0.8800000000000007 -0.3240000000000004,1.416 V28.484201594055776 h-3.504 zm19.29,0.3480000000000005 c-1.08,0 -2.076,-0.14 -2.988,-0.4200000000000003 c-0.912,-0.2880000000000003 -1.6920000000000006,-0.6800000000000009 -2.34,-1.176 l1.1400000000000001,-2.448 a8.333,8.333 0 0 0 2.052,1.02 c0.7360000000000007,0.24000000000000016 1.444,0.3600000000000003 2.124,0.3600000000000003 c0.6720000000000009,0 1.188,-0.1 1.548,-0.3000000000000003 c0.3680000000000003,-0.20800000000000016 0.552,-0.504 0.552,-0.8880000000000008 c0,-0.34400000000000047 -0.16400000000000023,-0.5960000000000006 -0.4920000000000003,-0.7560000000000007 c-0.3200000000000004,-0.16800000000000026 -0.9440000000000006,-0.3480000000000005 -1.872,-0.54 c-1.6,-0.2880000000000003 -2.7680000000000002,-0.7400000000000007 -3.504,-1.356 c-0.7360000000000007,-0.6240000000000007 -1.104,-1.48 -1.104,-2.568 c0,-0.7680000000000008 0.21200000000000016,-1.444 0.6360000000000008,-2.028 c0.43200000000000033,-0.5840000000000006 1.024,-1.036 1.776,-1.356 c0.7520000000000007,-0.3280000000000004 1.616,-0.4920000000000003 2.592,-0.4920000000000003 c0.9600000000000006,0 1.864,0.132 2.712,0.39600000000000046 c0.8560000000000006,0.256 1.588,0.6160000000000007 2.196,1.08 l-1.104,2.46 a5.34,5.34 0 0 0 -1.104,-0.6720000000000009 a6.35,6.35 0 0 0 -1.296,-0.4440000000000004 a5.43,5.43 0 0 0 -1.32,-0.16800000000000026 c-0.5840000000000006,0 -1.056,0.1 -1.416,0.3000000000000003 c-0.3600000000000003,0.19200000000000023 -0.54,0.464 -0.54,0.8160000000000006 c0,0.3520000000000003 0.16400000000000023,0.6120000000000007 0.4920000000000003,0.78 c0.3280000000000004,0.16800000000000026 0.9400000000000006,0.3520000000000003 1.836,0.552 c1.6720000000000006,0.3520000000000003 2.8600000000000003,0.8200000000000006 3.564,1.404 c0.7120000000000006,0.5760000000000006 1.068,1.3880000000000001 1.068,2.436 c0,0.808 -0.22000000000000017,1.512 -0.6600000000000009,2.112 c-0.43200000000000033,0.6000000000000006 -1.04,1.068 -1.824,1.404 c-0.776,0.3280000000000004 -1.6840000000000006,0.4920000000000003 -2.724,0.4920000000000003 zm7.413,-0.3480000000000005 V16.364201594055775 h3.504 V28.484201594055776 h-3.504 zm1.7520000000000002,-14.04 a2.26,2.26 0 0 1 -1.512,-0.54 c-0.4240000000000003,-0.3680000000000003 -0.6360000000000008,-0.8560000000000006 -0.6360000000000008,-1.464 c0,-0.6160000000000007 0.21200000000000016,-1.104 0.6360000000000008,-1.464 a2.23,2.23 0 0 1 1.512,-0.552 a2.23,2.23 0 0 1 1.512,0.552 c0.4240000000000003,0.3600000000000003 0.6360000000000008,0.8480000000000006 0.6360000000000008,1.464 c0,0.6080000000000007 -0.21200000000000016,1.096 -0.6360000000000008,1.464 a2.26,2.26 0 0 1 -1.512,0.54 zm10.362,14.4 c-1.304,0 -2.46,-0.2920000000000003 -3.468,-0.8760000000000007 a6.504,6.504 0 0 1 -2.376,-2.3280000000000003 a6.28,6.28 0 0 1 -0.8520000000000006,-3.216 c0,-0.8560000000000006 0.16400000000000023,-1.6680000000000001 0.4920000000000003,-2.436 a6.302,6.302 0 0 1 1.3920000000000001,-2.052 c0.6000000000000006,-0.6000000000000006 1.308,-1.072 2.124,-1.416 c0.8160000000000006,-0.34400000000000047 1.7120000000000002,-0.516 2.688,-0.516 c1.304,0 2.456,0.2920000000000003 3.456,0.8760000000000007 a6.38,6.38 0 0 1 2.364,2.34 c0.5760000000000006,0.9680000000000006 0.8640000000000007,2.036 0.8640000000000007,3.204 c0,0.8480000000000006 -0.16400000000000023,1.6600000000000001 -0.4920000000000003,2.436 a6.439,6.439 0 0 1 -1.3920000000000001,2.064 a6.547,6.547 0 0 1 -2.112,1.404 c-0.8160000000000006,0.34400000000000047 -1.7120000000000002,0.516 -2.688,0.516 zm0,-3.036 c0.6160000000000007,0 1.1680000000000001,-0.136 1.6560000000000001,-0.4080000000000003 c0.4880000000000003,-0.28 0.8720000000000007,-0.6720000000000009 1.1520000000000001,-1.176 c0.28,-0.512 0.4200000000000003,-1.112 0.4200000000000003,-1.8 c0,-0.696000000000001 -0.14,-1.296 -0.4200000000000003,-1.8 a2.854,2.854 0 0 0 -1.1400000000000001,-1.1640000000000001 c-0.4880000000000003,-0.28 -1.044,-0.4200000000000003 -1.6680000000000001,-0.4200000000000003 c-0.6240000000000007,0 -1.184,0.14 -1.6800000000000006,0.4200000000000003 c-0.4880000000000003,0.272 -0.8720000000000007,0.6600000000000009 -1.1520000000000001,1.1640000000000001 c-0.272,0.504 -0.4080000000000003,1.104 -0.4080000000000003,1.8 s0.14,1.296 0.4200000000000003,1.8 c0.28,0.504 0.6640000000000009,0.8960000000000008 1.1520000000000001,1.176 c0.4880000000000003,0.272 1.044,0.4080000000000003 1.6680000000000001,0.4080000000000003 zM148.9615028971915,28.484201594055776 V16.364201594055775 h3.504 v1.368 c0.464,-0.6080000000000007 1.012,-1.048 1.6440000000000001,-1.32 a5.072,5.072 0 0 1 2.004,-0.4080000000000003 c1.1280000000000001,0 2.056,0.22400000000000023 2.784,0.6720000000000009 c0.7360000000000007,0.44000000000000034 1.28,1.012 1.6320000000000001,1.7160000000000002 c0.3600000000000003,0.7040000000000006 0.54,1.444 0.54,2.22 V28.484201594055776 h-3.504 v-6.78 c0,-0.7680000000000008 -0.21600000000000016,-1.3800000000000001 -0.6480000000000008,-1.836 c-0.4240000000000003,-0.456 -1.04,-0.6840000000000009 -1.848,-0.6840000000000009 c-0.512,0 -0.9640000000000006,0.11600000000000012 -1.356,0.3480000000000005 c-0.3920000000000004,0.22400000000000023 -0.7000000000000006,0.54 -0.924,0.9480000000000006 c-0.21600000000000016,0.4080000000000003 -0.3240000000000004,0.8800000000000007 -0.3240000000000004,1.416 V28.484201594055776 h-3.504 zm19.291,0.3480000000000005 c-1.08,0 -2.076,-0.14 -2.988,-0.4200000000000003 c-0.912,-0.2880000000000003 -1.6920000000000006,-0.6800000000000009 -2.34,-1.176 l1.1400000000000001,-2.448 a8.333,8.333 0 0 0 2.052,1.02 c0.7360000000000007,0.24000000000000016 1.444,0.3600000000000003 2.124,0.3600000000000003 c0.6720000000000009,0 1.188,-0.1 1.548,-0.3000000000000003 c0.3680000000000003,-0.20800000000000016 0.552,-0.504 0.552,-0.8880000000000008 c0,-0.34400000000000047 -0.16400000000000023,-0.5960000000000006 -0.4920000000000003,-0.7560000000000007 c-0.3200000000000004,-0.16800000000000026 -0.9440000000000006,-0.3480000000000005 -1.872,-0.54 c-1.6,-0.2880000000000003 -2.7680000000000002,-0.7400000000000007 -3.504,-1.356 c-0.7360000000000007,-0.6240000000000007 -1.104,-1.48 -1.104,-2.568 c0,-0.7680000000000008 0.21200000000000016,-1.444 0.6360000000000008,-2.028 c0.43200000000000033,-0.5840000000000006 1.024,-1.036 1.776,-1.356 c0.7520000000000007,-0.3280000000000004 1.616,-0.4920000000000003 2.592,-0.4920000000000003 c0.9600000000000006,0 1.864,0.132 2.712,0.39600000000000046 c0.8560000000000006,0.256 1.588,0.6160000000000007 2.196,1.08 l-1.104,2.46 a5.34,5.34 0 0 0 -1.104,-0.6720000000000009 a6.35,6.35 0 0 0 -1.296,-0.4440000000000004 a5.43,5.43 0 0 0 -1.32,-0.16800000000000026 c-0.5840000000000006,0 -1.056,0.1 -1.416,0.3000000000000003 c-0.3600000000000003,0.19200000000000023 -0.54,0.464 -0.54,0.8160000000000006 c0,0.3520000000000003 0.16400000000000023,0.6120000000000007 0.4920000000000003,0.78 c0.3280000000000004,0.16800000000000026 0.9400000000000006,0.3520000000000003 1.836,0.552 c1.6720000000000006,0.3520000000000003 2.8600000000000003,0.8200000000000006 3.564,1.404 c0.7120000000000006,0.5760000000000006 1.068,1.3880000000000001 1.068,2.436 c0,0.808 -0.22000000000000017,1.512 -0.6600000000000009,2.112 c-0.43200000000000033,0.6000000000000006 -1.04,1.068 -1.824,1.404 c-0.776,0.3280000000000004 -1.6840000000000006,0.4920000000000003 -2.724,0.4920000000000003 z" id="svg_4" class="" fill-opacity="1"/></g></svg>